<?xml version="1.0" standalone="no"?><!DOCTYPE svg PUBLIC "-//W3C//DTD SVG 1.1//EN" "http://www.w3.org/Graphics/SVG/1.1/DTD/svg11.dtd"><svg t="1551608259730" class="icon" style="" viewBox="0 0 1024 1024" version="1.1" xmlns="http://www.w3.org/2000/svg" p-id="2054" xmlns:xlink="http://www.w3.org/1999/xlink" width="200" height="200"><defs><style type="text/css"></style></defs><path d="M512 64C264.58 64 64 264.58 64 512s200.58 448 448 448 448-200.58 448-448S759.42 64 512 64z m0 832c-212.08 0-384-171.92-384-384s171.92-384 384-384 384 171.92 384 384-171.92 384-384 384z" p-id="2055" fill="#ffffff"></path><path d="M625.14 353.61L512 466.75 398.86 353.61a32 32 0 0 0-45.25 45.25L466.75 512 353.61 625.14a32 32 0 0 0 45.25 45.25L512 557.25l113.14 113.14a32 32 0 0 0 45.25-45.25L557.25 512l113.14-113.14a32 32 0 0 0-45.25-45.25z" p-id="2056" fill="#ffffff"></path></svg>