<?xml version="1.0" standalone="no"?><!DOCTYPE svg PUBLIC "-//W3C//DTD SVG 1.1//EN" "http://www.w3.org/Graphics/SVG/1.1/DTD/svg11.dtd"><svg t="1512461895936" class="icon" style="" viewBox="0 0 1024 1024" version="1.1" xmlns="http://www.w3.org/2000/svg" p-id="5667" xmlns:xlink="http://www.w3.org/1999/xlink" width="200" height="200"><defs><style type="text/css"></style></defs><path d="M582.592 268.448z m104.48-237.44C421.44-65.664 127.712 71.264 31.008 336.928c-96.672 265.664 40.288 559.424 305.92 656.064 265.664 96.672 559.36-40.32 656.064-305.92 96.704-265.664-40.288-559.36-305.92-656.064z m89.792 505.632a67.84 67.84 0 0 1-17.408 20.096c-6.272 4.576-10.784 6.08-13.504 4.608-2.752-1.408-4.544-4.448-5.408-8.992-0.896-4.512-0.128-11.936 2.208-22.368 3.872-16.896 2.976-30.784-2.592-41.472-5.568-10.688-16.576-20.928-32.928-30.624a118.08 118.08 0 0 1-40.448-40.512 374.304 374.304 0 0 1-23.616-44.768c-5.824-12-11.616-17.6-17.44-16.928-5.792 0.704-10.336 7.872-12.768 14.464l-24.672 72.416-62.528 171.584-33.6 92.48c-3.232 10.048-10.368 16.192-18.272 27.136a93.344 93.344 0 0 1-32.16 27.328c-13.536 7.328-29.632 11.872-48.384 13.792-18.72 1.888-40.192-0.928-64.384-8.288-24.544-7.52-44.672-19.776-60.544-36.8-15.776-17.024-26.24-35.04-31.36-53.984a88.704 88.704 0 0 1 2.464-55.392c6.784-18.016 20.608-32.096 41.44-42.336 20.864-10.24 41.184-15.264 61.024-15.072a184.288 184.288 0 0 1 54.624 8.288c16.608 5.28 30.816 11.744 42.624 19.392 11.808 7.52 23.712 12.768 28.96 17.472l62.432-171.584c17.856-48.928 39.776-110.464 62.496-171.648 4.384-12.032 7.552-17.76 16.48-23.168s18.688-6.912 29.376-4.448c9.024 1.856 15.456 6.208 19.2 12.992 3.808 6.784 7.008 15.456 9.664 26.016 2.592 10.592 6.176 22.752 10.624 36.576 4.448 13.792 11.936 28.512 22.464 44.096 8.8 14.016 17.056 24.672 24.704 32.192 7.616 7.488 14.912 14.496 21.568 20.896 6.688 6.432 12.96 13.504 18.944 21.344 5.984 7.808 11.616 19.008 16.928 33.632 5.504 14.144 7.168 27.424 4.992 39.84a92.512 92.512 0 0 1-11.2 31.744z" fill="#999999" p-id="5668"></path></svg>