<?xml version="1.0" standalone="no"?><!DOCTYPE svg PUBLIC "-//W3C//DTD SVG 1.1//EN" "http://www.w3.org/Graphics/SVG/1.1/DTD/svg11.dtd"><svg t="1512461959302" class="icon" style="" viewBox="0 0 1026 1024" version="1.1" xmlns="http://www.w3.org/2000/svg" p-id="6429" xmlns:xlink="http://www.w3.org/1999/xlink" width="200.390625" height="200"><defs><style type="text/css"></style></defs><path d="M687.019638 31.025877C421.364158-65.690624 127.708213 71.298887 31.008733 336.954367c-96.69948 265.65548 40.290031 559.447597 305.945511 656.010904 265.638458 96.750544 559.311425-40.255988 656.010905-305.928489 96.614372-265.638458-40.392161-559.430576-305.945511-656.010905m89.788726 505.591383a70.452235 70.452235 0 0 1-17.396033 20.153527c-6.246912 4.561778-10.80869 6.025632-13.549162 4.561778-2.740471-1.361725-4.561778-4.442627-5.446899-8.987384-0.919164-4.561778-0.119151-11.932113 2.161738-22.417394 3.863894-16.936452 2.94473-30.809023-2.62132-41.413454-5.583072-10.689539-16.630064-20.936518-32.902675-30.604764a118.946658 118.946658 0 0 1-40.49429-40.49429 391.904387 391.904387 0 0 1-23.659967-44.698615c-5.804352-11.966156-11.625725-17.634336-17.413056-16.970495-5.804352 0.697884-10.332087 7.846939-12.732126 14.451304l-24.562111 72.358649-18.247112 50.009342 182.81155 316.583986-27.28556 15.778986-169.619841-293.809139L525.604189 614.133442l-33.566516 92.512176c-3.183032 10.025699-10.349108 16.170482-18.332219 27.217474a92.256853 92.256853 0 0 1-32.187769 27.302582c-13.53214 7.285227-29.58347 11.829984-48.341229 13.770441-18.791802 1.940458-40.170881-0.919164-64.409582-8.289499-24.56211-7.506508-44.715637-19.796074-60.528665-36.766569-15.813029-17.055603-26.281288-35.047391-31.404778-53.9243a88.716368 88.716368 0 0 1 2.50217-55.405177c6.825645-17.991788 20.579065-32.08564 41.413454-42.332618 20.817367-10.229957 41.175153-15.251317 60.988248-15.013016 18.5535 0 36.970827 2.8426 54.605163 8.323543 16.613042 5.225619 30.826044 11.710833 42.656028 19.336491 11.829984 7.489486 23.659968 12.732127 29.021759 17.515185l51.200851-140.649146-146.998188-254.608488 27.268538-15.727921 133.789458 231.731512s38.179358-105.959208 59.660566-163.985705c4.442627-12.051264 7.489486-17.753487 16.493891-23.217407 8.868233-5.463921 18.672651-6.944796 29.362191-4.442627 9.004405 1.821307 15.472598 6.263934 19.234362 12.970428 3.761765 6.825645 7.063947 15.472598 9.668246 26.060008 2.604299 10.58741 6.144783 22.757825 10.570388 36.511245 4.459649 13.787463 11.949135 28.562177 22.417394 44.153926 8.766103 13.991722 17.072624 24.681261 24.681261 32.20479 7.625659 7.506508 14.910886 14.434282 21.634403 20.919497 6.706494 6.485214 12.970428 13.53214 18.859888 21.3961 6.025632 7.846939 11.608704 18.99606 16.953473 33.685667 5.463921 14.110873 7.166077 27.421732 5.004338 39.796406a90.946193 90.946193 0 0 1-11.012949 31.43882" fill="#999999" p-id="6430"></path></svg>